<?xml version="1.0" encoding="UTF-8"?>
<svg xmlns="http://www.w3.org/2000/svg" xmlns:xlink="http://www.w3.org/1999/xlink" width="230pt" height="16.887pt" viewBox="0 0 230 16.887">
<defs>
<clipPath id="clip-0">
<path clip-rule="nonzero" d="M 205 0 L 230 0 L 230 16.886719 L 205 16.886719 Z M 205 0 "/>
</clipPath>
</defs>
<path fill="none" stroke-width="0.79701" stroke-linecap="butt" stroke-linejoin="miter" stroke="rgb(0%, 0%, 0%)" stroke-opacity="1" stroke-miterlimit="10" d="M -178.582781 -0.0013125 L 32.089094 -0.0013125 " transform="matrix(1, 0, 0, -1, 185.157, 8.444)"/>
<path fill-rule="nonzero" fill="rgb(0%, 0%, 0%)" fill-opacity="1" d="M 221.78125 8.445312 C 221.226562 8.304688 218.777344 7.523438 217.246094 6.671875 L 217.246094 10.214844 C 218.777344 9.363281 221.226562 8.582031 221.78125 8.445312 Z M 221.78125 8.445312 "/>
<g clip-path="url(#clip-0)">
<path fill="none" stroke-width="0.79701" stroke-linecap="butt" stroke-linejoin="miter" stroke="rgb(0%, 0%, 0%)" stroke-opacity="1" stroke-miterlimit="10" d="M 4.53325 -0.0013125 C 3.978562 0.139313 1.529344 0.920563 -0.00190625 1.772125 L -0.00190625 -1.770844 C 1.529344 -0.919281 3.978562 -0.138031 4.53325 -0.0013125 Z M 4.53325 -0.0013125 " transform="matrix(1, 0, 0, -1, 217.248, 8.444)"/>
</g>
<path fill="none" stroke-width="1.19553" stroke-linecap="butt" stroke-linejoin="miter" stroke="rgb(0%, 0%, 0%)" stroke-opacity="1" stroke-miterlimit="10" d="M -178.582781 -0.0013125 L 38.268781 -0.0013125 " transform="matrix(1, 0, 0, -1, 185.157, 8.444)"/>
</svg>
