<?xml version="1.0" encoding="UTF-8"?>
<svg xmlns="http://www.w3.org/2000/svg" xmlns:xlink="http://www.w3.org/1999/xlink" width="230pt" height="18.232pt" viewBox="0 0 230 18.232">
<defs>
<clipPath id="clip-0">
<path clip-rule="nonzero" d="M 205 0 L 230 0 L 230 18.230469 L 205 18.230469 Z M 205 0 "/>
</clipPath>
<clipPath id="clip-1">
<path clip-rule="nonzero" d="M 198 0 L 230 0 L 230 18.230469 L 198 18.230469 Z M 198 0 "/>
</clipPath>
</defs>
<path fill="none" stroke-width="0.79701" stroke-linecap="butt" stroke-linejoin="miter" stroke="rgb(0%, 0%, 0%)" stroke-opacity="1" stroke-miterlimit="10" d="M -38.268781 -0.0011875 L 172.407 -0.0011875 " transform="matrix(1, 0, 0, -1, 44.843, 9.116)"/>
<path fill-rule="nonzero" fill="rgb(0%, 0%, 0%)" fill-opacity="1" d="M 221.785156 9.117188 C 221.226562 8.976562 218.78125 8.195312 217.25 7.34375 L 217.25 10.886719 C 218.78125 10.035156 221.226562 9.253906 221.785156 9.117188 Z M 221.785156 9.117188 "/>
<g clip-path="url(#clip-0)">
<path fill="none" stroke-width="0.79701" stroke-linecap="butt" stroke-linejoin="miter" stroke="rgb(0%, 0%, 0%)" stroke-opacity="1" stroke-miterlimit="10" d="M 4.535376 -0.0011875 C 3.976783 0.139437 1.53147 0.920687 0.00022 1.77225 L 0.00022 -1.770719 C 1.53147 -0.919156 3.976783 -0.137906 4.535376 -0.0011875 Z M 4.535376 -0.0011875 " transform="matrix(1, 0, 0, -1, 217.24978, 9.116)"/>
</g>
<path fill="none" stroke-width="1.19553" stroke-linecap="butt" stroke-linejoin="miter" stroke="rgb(0%, 0%, 0%)" stroke-opacity="1" stroke-miterlimit="10" d="M -38.268781 -0.0011875 L 170.81325 -0.0011875 " transform="matrix(1, 0, 0, -1, 44.843, 9.116)"/>
<path fill-rule="nonzero" fill="rgb(0%, 0%, 0%)" fill-opacity="1" d="M 220.960938 9.117188 C 220.308594 8.953125 217.445312 8.027344 215.65625 7.019531 L 215.65625 11.214844 C 217.445312 10.207031 220.308594 9.28125 220.960938 9.117188 Z M 220.960938 9.117188 "/>
<g clip-path="url(#clip-1)">
<path fill="none" stroke-width="1.19553" stroke-linecap="butt" stroke-linejoin="miter" stroke="rgb(0%, 0%, 0%)" stroke-opacity="1" stroke-miterlimit="10" d="M 5.305178 -0.0011875 C 4.652834 0.162875 1.789553 1.088656 0.00049 2.096469 L 0.00049 -2.098844 C 1.789553 -1.091031 4.652834 -0.16525 5.305178 -0.0011875 Z M 5.305178 -0.0011875 " transform="matrix(1, 0, 0, -1, 215.65576, 9.116)"/>
</g>
</svg>
